/* XPM */
static char *e0135a65539e4536e7f5ab81981398bczy79Hschm8MQv1vP[] = {
/* columns rows colors chars-per-pixel */
"30 30 54 1 ",
"  c white",
". c #FEFEFE",
"X c #E9EDF0",
"o c #B4C1C9",
"O c #FBFCFC",
"+ c #F1F4F5",
"@ c #B3C0C8",
"# c #E5E9EC",
"$ c #BAC7CE",
"% c #EFF2F3",
"& c #BAC6CD",
"* c #F6F9FE",
"= c #FEFEFF",
"- c #CDDCFC",
"; c #F5F8FE",
": c #FBFCFF",
"> c #180E0E",
", c #CFDEFC",
"< c #FDFEFF",
"1 c #F4F8FE",
"2 c #DBE6FD",
"3 c #F0F5FE",
"4 c yellow",
"5 c #EBF1FE",
"6 c #D5E2FD",
"7 c #F3F6FE",
"8 c #FBFDFF",
"9 c #FF9F00",
"0 c #C8D6EB",
"q c #D8E4FD",
"w c #F4F7FE",
"e c #E9F0FE",
"r c #CC7F00",
"t c #E8EFFE",
"y c #F3F7FE",
"u c #E5EDFD",
"i c #F2F6FE",
"p c #E5EDFE",
"a c #C7D1D7",
"s c #DBE1E5",
"d c #BECAD0",
"f c #EBEFF1",
"g c #BDC9D0",
"h c #DFE4E8",
"j c #FCFDFD",
"k c #EDF0F2",
"l c #FCFCFD",
"z c #E3ECFD",
"x c #DFE9FD",
"c c #FCFDFF",
"v c #D2E0FC",
"b c #FDFDFF",
"n c #FAFCFF",
"m c #CEDDFC",
/* pixels */
"                     .        ",
"                   .XoO       ",
"                   +@#$       ",
"                    %&        ",
"                              ",
"                *             ",
"               =-;            ",
"     *:      >>>>, <1         ",
"     23    >>4444>>56         ",
"     2378 >449999  >0         ",
"     23qw>499999  9 >         ",
"     e*q>499994  9 9r>        ",
"       t>49994  r 99r>        ",
"        >4994  9 999r>        ",
"y       >499  9 r999r>        ",
"uy      >49  4 9r999r>       i",
"p1      >4  9 99r999r>       w",
";       >  9 499r999r>        ",
"        > 9 99rr9999r>        ",
"         > 99999999r>         ",
"         a>449999rr>          ",
"        asd>>rrrr>>           ",
"        fghj >>>>             ",
"         kl            yz     ",
"                     *x32     ",
"                     wq32     ",
"                     wq<:     ",
"                     =c       ",
"            vb                ",
"           vnm=               "
};
