/* XPM */
static char *result[] = {
/* columns rows colors chars-per-pixel */
"30 30 175 2 ",
"   c #161C1C",
".  c #231F1D",
"X  c #1F2626",
"o  c #2D2522",
"O  c #262320",
"+  c #362420",
"@  c #3A2520",
"#  c #342924",
"$  c #3D2D27",
"%  c #3D3125",
"&  c #243637",
"*  c #353B3B",
"=  c #432721",
"-  c #4F2A23",
";  c #442F2A",
":  c #5E2E25",
">  c #473129",
",  c #5A372B",
"<  c #453430",
"1  c #523D39",
"2  c #643429",
"3  c #643C2A",
"4  c #703227",
"5  c #633D32",
"6  c #58402B",
"7  c #5B433F",
"8  c #6A492F",
"9  c #6E483D",
"0  c #754537",
"q  c #784435",
"w  c #7D4939",
"e  c #7E5434",
"r  c #2C4445",
"t  c #3D4242",
"y  c #334F50",
"u  c #3A5B5C",
"i  c #3E6263",
"p  c #404646",
"a  c #474948",
"s  c #504643",
"d  c #5C4540",
"f  c #56514F",
"g  c #5C504C",
"h  c #4E5354",
"j  c #485759",
"k  c #6A4940",
"l  c #614F4C",
"z  c #684E48",
"x  c #734F48",
"c  c #615B57",
"v  c #6B5955",
"b  c #7C6551",
"n  c #446D6E",
"m  c #5E6465",
"M  c #497476",
"N  c #67787B",
"B  c #707474",
"V  c #737874",
"C  c #87382A",
"Z  c #8C3D2E",
"A  c #963C2C",
"S  c #A23F2E",
"D  c #88463A",
"F  c #854A3A",
"G  c #8C4F3D",
"H  c #924435",
"J  c #994F3D",
"K  c #9E4533",
"L  c #8B5039",
"P  c #9B523F",
"I  c #A5402E",
"U  c #AE422F",
"Y  c #A84A36",
"T  c #B44430",
"R  c #B44E3A",
"E  c #BE4E38",
"W  c #A2523E",
"Q  c #A9503C",
"!  c #AB6C3F",
"~  c #BD6C3F",
"^  c #C54C36",
"/  c #CB4B35",
"(  c #C24732",
")  c #D14B34",
"_  c #C95B3B",
"`  c #D65639",
"'  c #D65939",
"]  c #DD663F",
"[  c #D0623F",
"{  c #965340",
"}  c #A65C46",
"|  c #B25A49",
" . c #AC6346",
".. c #B86642",
"X. c #BC7543",
"o. c #A6665B",
"O. c #A97362",
"+. c #BB7669",
"@. c #CA6748",
"#. c #C57B45",
"$. c #C97D46",
"%. c #C66E5F",
"&. c #D46A58",
"*. c #D77048",
"=. c #E06F42",
"-. c #E67B47",
";. c #D36C64",
":. c #DA7A60",
">. c #D67869",
",. c #D77F70",
"<. c #C67464",
"1. c #D0824A",
"2. c #DA814B",
"3. c #DE884B",
"4. c #E4834B",
"5. c #E9824A",
"6. c #E58B4D",
"7. c #ED8C4D",
"8. c #EF914F",
"9. c #E98C56",
"0. c #D78F63",
"q. c #DC8B75",
"w. c #E79A67",
"e. c #EDA16C",
"r. c #E8A379",
"t. c #4F7F80",
"y. c #548789",
"u. c #518284",
"i. c #6F9B9D",
"p. c #6E9499",
"a. c #6D8486",
"s. c #888F8C",
"d. c #868A8A",
"f. c #8D9090",
"g. c #979593",
"h. c #9B9492",
"j. c #B39792",
"k. c #A99FAF",
"l. c #9DA5A6",
"z. c #ABA8A7",
"x. c #ADA4A3",
"c. c #AAA8B4",
"v. c #AFBBBE",
"b. c #A7B7B9",
"n. c #B5B7B7",
"m. c #B6A6A5",
"M. c #DA9B91",
"N. c #C3AE9C",
"B. c #CDB2AD",
"V. c #D3B3A1",
"C. c #D6A2B1",
"Z. c #DDBDB9",
"A. c #E2BDAF",
"S. c #D4C2BF",
"D. c #E9C2A5",
"F. c #B3C5CB",
"G. c #BFCCD0",
"H. c #B6D0D3",
"J. c #C4C6C6",
"K. c #C8C9C9",
"L. c #C0CBCD",
"P. c #DCC2C6",
"I. c #CFD1D1",
"U. c #C6D3D6",
"Y. c #DEDFDF",
"T. c #D4D5D5",
"R. c #E0D3D2",
"E. c #E2DBD8",
"W. c #D9E7EB",
"Q. c gray93",
"!. c #E2E9EC",
"~. c #E3F1F5",
"^. c #F3F7FE",
"/. c white",
"(. c #F4F4F4",
/* pixels */
"/././././.I.B t p p p p p B I.I.B t p t a B I./././././././.",
"/././.Q.K.g.g $ $ $ $ #   p f.h.z - - - - d h.n.n.n.n.n.n.n.",
"/././.I.B s 9 w w w w 5 o X * k H U U U U H 1 t p t t p p p ",
"/.Q.K.h.z 2 H Q Q Q Q G 2 - - 4 T ) ) ) / T 4 - - - - = .   ",
"/.I.B d H T ^ ^ ^ ^ ^ ( T U U T / ) ) ) ) / T U U U U C @   ",
"K.g.g , I ^ / ) ) ) ) ) / ) ) ) ) ) ) ) ) ) ) ) ) ( S D v m ",
"B s 9 F { R ^ ) ) ) ) ) ) ) ) ) ) ) ) ) ) ) ) ) ) U : g x.T.",
"h # 0 { { { R ^ / ) ) ) ) ) ) ) ) ) ) ) ) / ^ ^ ^ J , g g.n.",
"h # 0 { { P W Q / ) ) ) ) ) ) ) ) ) ) ) ) ^ Q W P P F 9 s t ",
"h # 0 { { { P P R ^ E ^ E E E E E E ^ E E R P { { { { 0 #   ",
"h # 0 { { { { P { } W P J } W W W W W W W P P P { { { 0 #   ",
"h o , 0 G P W Q Q Q Y Q Q Q { { { P W W W Q Q W P { { 0 o   ",
"h   O > w W R / ^ ^ ^ ^ / E W { P P E ^ / ^ ^ E W { { 0 #   ",
"h O $ 2 F } <.%.Q A A I _ _ ..} w q Z Y %.>.*._ W G w k c m ",
"h @ C U P O.B.m.l + + 3 ~ 6.4..., o + l m.A.w.*.} w > f z.T.",
"h = K ^ Q O.V.N.b 6 6 e $.8.6.1.e 6 6 b N.D.e.2. .0 # h J.^.",
"a $ S ^ { ..0.w.1.$.$.$.9.8.8.6.1.#.#.1.w.e.8.1. .0 # h J.^.",
"h = S / R | 2.8.8.8.8.8.8.4.X.! ! X.3.8.8.8.8.3. .0 # f J./.",
"h = S / ^ ' 5.8.8.8.8.8.8.#.8 % % 8 #.8.8.8.8.2.} q # h J./.",
"d.v D S ( ` =.5.7.8.8.8.8.$.e 6 , e 1.6.8.8.4.@.G k c d.T./.",
"Y.z.g : U / ` ] 5.8.8.8.8.7.$.#.$.$.6.8.8.4.=.Y , f z.Y.(./.",
"/.J.h < o.q.,.q.r.r.9.-.-.-.-.-.-.-.-.4.e.r.q.o.< h J./././.",
"/.J.f a x.R.R.R.E.A.:.' ' ' ' ' ' ' ` :.A.E.T.x.a h J./././.",
"K.l.B a.G.~.~.~.~.R.M.>.;.;.>.,.,.,.q.M.R.~.~.n.a h J./././.",
"B m l.U.W.~.~.~.~.!.T.P.C.C.P.T.R.R.R.E.!.~.~.v.h h J./././.",
"f p j.Z.Z.P.G.H.H.H.H.F.c.k.c.b.F.H.H.H.H.L.S.j.x z h.K.Q./.",
"h ; } &.&.+.f.i.i.i.i.i.p.N j h a.i.i.i.i.f.+.@.| A d B I./.",
"h = S / ) | B y.y.y.y.M n u r y M y.y.y.y.V | ) ) S = h J./.",
"h = S ) ) | V y.y.y.y.M r r n M u.y.y.y.y.B | ) ) S = h J./.",
"h = S ) ) | V y.y.y.y.n & & n y.y.y.y.y.y.V | / ) S = h J./."
};
