/* XPM */
static char *result[] = {
/* columns rows colors chars-per-pixel */
"30 30 177 2 ",
"   c #141B1B",
".  c #191E1E",
"X  c #1E211D",
"o  c #23221F",
"O  c #2A201E",
"+  c #34231F",
"@  c #1B2424",
"#  c #1F2E2E",
"$  c #262320",
"%  c #2B2522",
"&  c #282B29",
"*  c #3A2520",
"=  c #352C24",
"-  c #3B3024",
";  c #34322F",
":  c #253434",
">  c #2C3B3B",
",  c #2C3435",
"<  c #3B3430",
"1  c #422E29",
"2  c #423426",
"3  c #433629",
"4  c #4E3A29",
"5  c #54332B",
"6  c #543E2A",
"7  c #5E392F",
"8  c #5F3B30",
"9  c #653026",
"0  c #77362A",
"q  c #7C372A",
"w  c #70392D",
"e  c #643D32",
"r  c #474034",
"t  c #584D3D",
"y  c #63452E",
"u  c #6A492F",
"i  c #69463C",
"p  c #694135",
"a  c #7A4F35",
"s  c #2A4041",
"d  c #314B4C",
"f  c #384242",
"g  c #395556",
"h  c #3D6061",
"j  c #484340",
"k  c #414949",
"l  c #4A5756",
"z  c #5A5F5F",
"x  c #535D5E",
"c  c #655241",
"v  c #775349",
"b  c #6A5953",
"n  c #685D58",
"m  c #665550",
"M  c #7D5A54",
"N  c #426668",
"B  c #4E6566",
"V  c #4A7577",
"C  c #5F7072",
"Z  c #696D6D",
"A  c #656867",
"S  c #796F6D",
"D  c #6F7373",
"F  c #737676",
"G  c #7B7D7C",
"H  c #777A7A",
"J  c #813729",
"K  c #8C3A2B",
"L  c #933D2E",
"P  c #8B4D3B",
"I  c #8A4434",
"U  c #855836",
"Y  c #8B5C37",
"T  c #8D5C38",
"R  c #95513E",
"E  c #9B523F",
"W  c #925F39",
"Q  c #AB412F",
"!  c #AF4A36",
"~  c #AF4230",
"^  c #B54F39",
"/  c #BA4E39",
"(  c #A4513D",
")  c #AB503C",
"_  c #B75A3E",
"`  c #95623B",
"'  c #9B623C",
"]  c #A76A3E",
"[  c #A86B3F",
"{  c #B1633C",
"}  c #C34D37",
"|  c #CB4B35",
" . c #D14B34",
".. c #D75A3B",
"X. c #D25438",
"o. c #DB623D",
"O. c #965340",
"+. c #9C5641",
"@. c #9F5841",
"#. c #A45D43",
"$. c #856951",
"%. c #AE6E40",
"&. c #B46846",
"*. c #B57241",
"=. c #BC7543",
"-. c #A6665B",
";. c #877F7A",
":. c #CA6A43",
">. c #DC6E41",
",. c #CA7D46",
"<. c #CF7B4A",
"1. c #C27645",
"2. c #D37E4A",
"3. c #E37646",
"4. c #948678",
"5. c #D28248",
"6. c #DC854B",
"7. c #CE8B5B",
"8. c #C08356",
"9. c #D98A59",
"0. c #E9834A",
"q. c #E48B4D",
"w. c #EC8F4E",
"e. c #E4834A",
"r. c #EF914F",
"t. c #EF9252",
"y. c #EE995D",
"u. c #C88C61",
"i. c #D28D64",
"p. c #EE9B61",
"a. c #E49169",
"s. c #EDA36E",
"d. c #E9A878",
"f. c #4F7E80",
"g. c #528385",
"h. c #7D8283",
"j. c #788C8E",
"k. c #6B979A",
"l. c #878786",
"z. c #8D9495",
"x. c #949797",
"c. c #989796",
"v. c #919D9F",
"b. c #929EA0",
"n. c #9BA6A9",
"m. c #A5A6A5",
"M. c #ADAFAF",
"N. c #A7ABA8",
"B. c #B5B7B7",
"V. c #CF8B80",
"C. c #D89488",
"Z. c #DA9B91",
"A. c #DCA294",
"S. c #E8AD82",
"D. c #E5B798",
"F. c #D2BDAA",
"G. c #DDBAB4",
"H. c #D8C0AB",
"J. c #E8C8AF",
"K. c #B0CBCE",
"L. c #A8C3C6",
"P. c #C5C6C6",
"I. c #CBCCCC",
"U. c #DFD3C6",
"Y. c #C4D1D4",
"T. c #D6D6D6",
"R. c #D6D8D8",
"E. c #E2DBD9",
"W. c #DCE0E1",
"Q. c #E3E4E4",
"!. c #E2E7E9",
"~. c #E2E9EC",
"^. c #EDEDED",
"/. c #E3EFF3",
"(. c #EFF0F0",
"). c #F3F3F3",
"_. c #FEFEFE",
/* pixels */
"  . O + * + + + + + Z P.c.j % % O % j x.R.R.T.T.T.~.)._._._.",
"  O 9 L K K K K K K O.A n i e e e w i n A x Z Z Z M.)._._._.",
"  + L  . . . . . . .K * 5 I +.+.( +.I 5 O O O O O G T.^._._.",
"  + L  . . . . . . .~ K L ! / / } @.! L q J q w e b F M.^._.",
"$ 1 K |  . . . . . . . . . . . . . . . . . .| ! O.7 o Z T.).",
"z.;.v q Q  . . . . . . . . . . . . . . . . . .} #.K e b h.l.",
"_.I.A + J  . . . . . . . . . . . . . . . . . . . ./ O.e % . ",
"x.;.m 7 L ^ ^ ^ ^ ^ } |  . . . . . . . . . . .} / ! O.e O   ",
"& < i P R +.O.+.O.E ^ | | |  . . . . . . . .| / O.O.O.e o   ",
"  = p R ( ) ) ) ! ^ ^ / / / } |  . . . . .} / ! O.O.O.e $   ",
"  % p E / | | | } | ^ ! +.+.! }  . . . .| / +.+.O.O.O.e $   ",
"  = I &.:.o.o.o.o.o.&.+.O.O.+.^ } } | #.~ +.O.O.O.O.O.e o   ",
"  - ' 6.e.0.0.0.0.0.:.#.O.O.O.+.! +.! ! +.O.O.O.O.O.O.e $   ",
"  2 %.q.<.*.*.*.i.d.i.&.#.+.O.! +.+.+.O.O.O.O.O.O.O.O.e o   ",
"  - ] 6.T 4 4 4 4.U.D.9.&.#.+./ } } } ! O.O.O.O.O.O.O.e $   ",
"  - ] 6.U - 3 3 4.U.D.y.<.#.) |  . .| @.O.O.O.O.O.O.O.e $   ",
"  - ] q.1.] ] ] u.S.s.t.5.%.^ }  . .} ) O.O.O.O.O.O.O.e O   ",
"  - ` 5.5.5.q.r.r.r.r.r.<.&.#.}  .| } ( O.O.O.O.O.O.O.e O   ",
"  o 4 u u u *.r.r.r.r.r.6.<.:.X.| ^ ) ( O.O.O.O.O.O.O.e o   ",
"    o o o = ` r.r.r.r.r.w.w.3...} ) O.+.( O.O.( O.O.O.e ; & ",
"X + y Y W ` =.r.r.r.r.r.0.>...X.| / / / ^ ^ ^ ^ / K 5 M l.x.",
"  - ] w.r.r.r.r.r.t.r.t.3...X.X.X. . . .|  .X. .| q $ f.Q._.",
"j.4.$.U U U U U _ o.a.D.D.A.Z.Z.Z.Z.Z.Z.Z.Z.C.-.q $.4.B.^._.",
").P.A X X X X X 0  .C.E.~./.~.~.~.~.~.~.^.^.Q.f.+ f.W._._._.",
"_.!.m.G H F k   v V.G.!.Y.n.m.F.J.J.G.m.v.v.v.x . h.~._._._.",
"_.).^.!.!.T.F   G R.!./.N.l c 8.p.p.7.v , f d ,   4.^._._._.",
"_._._._._.^.l.  C L.K.K.j.> 6 =.r.r.,.y @ > g :   h.^._._._.",
"_._._._._.^.h.  g k.k.k.B : 6 =.r.r.,.y @ g V d   h.^._._._.",
"_._._._._.).m.z B N V g.h # - Y [ [ ` t s g h B z N.)._._._.",
"_._._._._._.W.P.h.> g f.h # $ - 4 4 r l h d s h.P.Q._._._._."
};
