/* XPM */
static char *_c527a998c444041ffa52063b6811ec8V5hFz1kA4bNE0DA7[] = {
/* columns rows colors chars-per-pixel */
"16 22 13 1 ",
"  c black",
". c None",
"X c black",
"o c #573A23",
"O c #402717",
"+ c #AC7B5D",
"@ c #21110D",
"# c #C1AC8F",
"$ c #787E97",
"% c #A4A8B5",
"& c #2C65B5",
"* c #1D438A",
"= c white",
/* pixels */
"                ",
"   XXXX XX      ",
"   XooOXoXXX    ",
"   XXooOoOooX   ",
"  XOoooooooooX  ",
" XOoooooooooooX ",
" XOooOoooOOoooX ",
" XOOOOoooO++OoOX",
" XOoOOooO++++OOX",
" XOoo+Oo+@##@XOX",
" XOOo++O#@##@XX ",
"  XOO++######X  ",
"   XOO++####+X  ",
"    XOO+++++X   ",
"    XOOo$$$OX   ",
"   X#Ooo$$%O+X  ",
"   X##oo$%%O+X  ",
"    XOoo&&&OX   ",
"   .X*&&*&&X..  ",
"  ..XOoXXOoX... ",
"  ............. ",
"   ...........  "
};
