/* XPM */
static char *_8af2c1e740a425fda888c8daa5185fecUOu8i93HjKtSVSu[] = {
/* columns rows colors chars-per-pixel */
"14 23 13 1 ",
"  c black",
". c None",
"X c black",
"o c #573A23",
"O c #402717",
"+ c #AC7B5D",
"@ c #21110D",
"# c #C1AC8F",
"$ c #787E97",
"% c #A4A8B5",
"& c #2C65B5",
"* c #1D438A",
"= c white",
/* pixels */
"              ",
"  XXXX XX     ",
"  XooOXoXXX   ",
"  XXooOoooOX  ",
" XOooooooooX  ",
"XOooooOooooOX ",
"XoooOOOOooooX ",
"XoooO++++OooX ",
"XooO++++++OoX ",
"XOo+@###@+OX  ",
" Xo#@###@##X  ",
" X+#######+X  ",
"  X+#####+X   ",
"  XO+++++OX   ",
"  XOo$$$oOX   ",
" X##o$%%o##X  ",
" X##o&&&o##X  ",
"  X&&&*&&&X   ",
" .X&&*X*&&X.  ",
"..XOoX.XoOX.. ",
"............. ",
" ...........  ",
"              "
};
