/* XPM */
static char *_dad2995c6a7452dbe93a2e99669d38cfPSgE1FkBIUzMftq[] = {
/* columns rows colors chars-per-pixel */
"16 22 13 1 ",
"  c black",
". c None",
"X c black",
"o c #573A23",
"O c #402717",
"+ c #AC7B5D",
"@ c #21110D",
"# c #C1AC8F",
"$ c #787E97",
"% c #A4A8B5",
"& c #2C65B5",
"* c #1D438A",
"= c white",
/* pixels */
"                ",
"      XX XXXX   ",
"    XXXoXOooX   ",
"   XooOoOooXX   ",
"  XoooooooooOX  ",
" XoooooooooooOX ",
" XoooOOoooOooOX ",
"XOoO++OoooOOOOX ",
"XOO++++OooOOoOX ",
"XOX@##@+oO+ooOX ",
" XX@##@#O++oOOX ",
"  X######++OOX  ",
"  X+####++OOX   ",
"   X+++++OOX    ",
"   XO$$$oOOX    ",
"  X+O%$$ooO#X   ",
"  X+O%%$oo##X   ",
"   XO&&&ooOX    ",
"  ..X&&*&&*X.   ",
" ...XoOXXoOX..  ",
" .............  ",
"  ...........   "
};
