/* XPM */
static char *result[] = {
/* columns rows colors chars-per-pixel */
"30 30 187 2 ",
"   c #141B1B",
".  c #241F1D",
"X  c #1F211E",
"o  c #23231F",
"O  c #1B2222",
"+  c #1F2E2E",
"@  c #232A2A",
"#  c #282824",
"$  c #332B23",
"%  c #392C25",
"&  c #3A2520",
"*  c #3D3125",
"=  c #273737",
"-  c #353B3B",
";  c #393E3E",
":  c #422621",
">  c #412F28",
",  c #482D26",
"<  c #552C24",
"1  c #5A2D24",
"2  c #433426",
"3  c #483727",
"4  c #4C3928",
"5  c #43332E",
"6  c #51352C",
"7  c #553A2A",
"8  c #4A3A33",
"9  c #613127",
"0  c #78392C",
"q  c #6D3D30",
"w  c #5A402C",
"e  c #45413F",
"r  c #59453E",
"t  c #64462E",
"y  c #72472F",
"u  c #6B4A30",
"i  c #654739",
"p  c #7A493A",
"a  c #734737",
"s  c #795233",
"d  c #2A4141",
"f  c #2E4848",
"g  c #344242",
"h  c #3A4344",
"j  c #334C4D",
"k  c #3D494C",
"l  c #3A5B5C",
"z  c #3F5556",
"x  c #3F6364",
"c  c #414747",
"v  c #454B4B",
"b  c #494F4F",
"n  c #594942",
"m  c #5D524E",
"M  c #4B5151",
"N  c #4F585F",
"B  c #595E5E",
"V  c #4C554D",
"C  c #635547",
"Z  c #695747",
"A  c #675854",
"S  c #726151",
"D  c #446567",
"F  c #5E6364",
"G  c #576465",
"H  c #4A7678",
"J  c #4A7779",
"K  c #696E6C",
"L  c #636F70",
"P  c #7E7775",
"I  c #757878",
"U  c #9E3E2D",
"Y  c #88382A",
"T  c #A23F2E",
"R  c #824A3A",
"E  c #8A4738",
"W  c #994736",
"Q  c #865637",
"!  c #90503E",
"~  c #9C523F",
"^  c #905E39",
"/  c #A5402E",
"(  c #A54835",
")  c #B24330",
"_  c #BA4531",
"`  c #B54F39",
"'  c #BE4D38",
"]  c #BB4A36",
"[  c #A3513D",
"{  c #AA513C",
"}  c #B25737",
"|  c #9F663C",
" . c #AD6D3F",
".. c #A4663E",
"X. c #C34D37",
"o. c #CC4C35",
"O. c #C04732",
"+. c #D14B34",
"@. c #C8583B",
"#. c #D95E3B",
"$. c #D4593A",
"%. c #CD603E",
"&. c #965340",
"*. c #985340",
"=. c #9E5841",
"-. c #AF5E41",
";. c #BE5341",
":. c #A86544",
">. c #B56644",
",. c #B57241",
"<. c #BC7643",
"1. c #BF7C4C",
"2. c #857B77",
"3. c #8D6963",
"4. c #C57B45",
"5. c #CA7D46",
"6. c #C67849",
"7. c #D46B59",
"8. c #D16755",
"9. c #D4784E",
"0. c #E37645",
"q. c #DD7E60",
"w. c #938271",
"e. c #B6947A",
"r. c #D48249",
"t. c #DD844A",
"y. c #E2854C",
"u. c #E88049",
"i. c #E28A4C",
"p. c #EC8C4D",
"a. c #EF914F",
"s. c #EA8950",
"d. c #EE9A5E",
"f. c #DB9969",
"g. c #D78072",
"h. c #DD9E76",
"j. c #EB9A67",
"k. c #E19D70",
"l. c #ECA877",
"z. c #627E80",
"x. c #518284",
"c. c #7C8080",
"v. c #749597",
"b. c #978683",
"n. c #898F92",
"m. c #828992",
"M. c #8E9393",
"N. c #9D9A97",
"B. c #979A9A",
"V. c #989B9B",
"C. c #B5A698",
"Z. c #86ACAF",
"A. c #92A2A4",
"S. c #99A2B2",
"D. c #A7A9A9",
"F. c #ADAEAE",
"G. c #A5A7A7",
"H. c #AFB1B1",
"J. c #B3B6B6",
"K. c #B9BBBB",
"L. c #B7B9B9",
"P. c #DBA882",
"I. c #EBB186",
"U. c #E3AD94",
"Y. c #D2B1AC",
"T. c #DDBCB8",
"R. c #E6CBB6",
"E. c #E3CABD",
"W. c #AFC1C4",
"Q. c #BAC7CA",
"!. c #C4C8CC",
"~. c #C3C5C5",
"^. c #DEC3C0",
"/. c #C3CFD1",
"(. c #CDCFD0",
"). c #CDD8DA",
"_. c #D3D4D4",
"`. c #DBDCDC",
"'. c #D7D9D5",
"]. c #E1DED7",
"[. c #E5E0D8",
"{. c #E1DFE0",
"}. c #CCE0E4",
"|. c #DEE6E8",
" X c #DBE6FD",
".X c #EDEEEE",
"XX c #FFFFFF",
/* pixels */
"XXXXXXXXXXXXXXXXXXXXH.M ; - - - z.{.~.B ; - - - - - - - - - ",
"XXXXXXXX`.J.F.F.F.F.2.8 * 5 > * A N.b.q < < < 9 < < : .     ",
"XXXXXXXXD.v g ; ; ; r p R R R R n e q U T _ T O.T T Y :     ",
"XXXX`.J.P 8 , < < < q ( { { ` =.E 9 0 _ +.+.+.+.+.+.T :     ",
"XXXXG.v r p W / _ T _ O.X.o.X.o.] _ _ o.+.+.+.+.+.+.T >     ",
"`.L.2.5 q [ ' o.+.+.+.+.+.+.+.+.+.+.+.+.+.+.+.+.+.T Y A F F ",
"G.v n p W X.o.o.+.+.+.+.+.+.+.+.+.+.+.+.+.+.+.+.T 1 A F._._.",
"M.O 6 ! { X.X.+.+.+.+.+.+.+.+.+.+.+.o.X.' X.' O.( 1 m N.K.K.",
"n.O 6 E *.*.;.+.+.+.+.+.+.+.+.+.+.+.X.{ -.~ [ [ W R i n k k ",
"M.O 6 &.*.&.[ O.X.+.+.+.+.+.o.X.' X.` { [ [ [ { -.*.a $     ",
"M.O 6 &.*.*.*.=.` +.+.+.+.+.X.=.[ [ { ' X.X.X.X.` *.y $     ",
"M.O 6 E *.*.&.&.=.X.X.O.X.X.' *.&.*.{ $.#.#.#.#.%.-.Q %     ",
"M.O 6 E &.&.&.&.*.( { =.=.=.=.*.&.&.>.9.u.y.u.u.0.t.:.2     ",
"M.# 6 &.&.&.&.&.*.*.*.*.=.( *.*.=.:.6.h.f.6.,.,.5.i.,.3     ",
"n.O 6 &.&.&.&.&.*.*.W ' X.o.O.*.:.9.h.R.C.Z 4 4 s 5.,.3     ",
"m.O 5 &.&.&.&.&.*.*.;.o.+.+.X.*.>.i.l.R.C.Z 3 3 s 5.,.3     ",
"m.O 6 ! ~ &.&.&.! &.{ o.+.+.` ~ ,.y.j.l.f.4.,.,.<.i. .2 X   ",
"n.O 6 ! ~ ~ &.&.&.~ { ' o.o.@.} 6.i.a.a.a.a.i.4.<.<.| *     ",
"n.O 6 ! &.~ &.&.~ ! ~ [ ` o.%.9.t.p.a.a.a.a.4.y w w * o     ",
"D.b n p E [ ~ ~ [ [ [ [ ` o.#.u.p.p.a.a.a.a.<.t 2 * % X     ",
"{.L.2.5 q ` X.' ' ' ' ' o.o.$.%.0.s.a.s.a.a.t.<.,. .Q %     ",
"XXXXD.b a / ;.8.7.7.7.7.7.7.7.7.q.j.j.s.t.5.4.4.4.5.| m c h ",
"XXXX`.L.2.1 3.Y.T.T.T.T.T.T.R.T.E.^.U.q.} y w w 7 w S N.J.J.",
"XXXXXXXXV.@ L W././._.'.[.[.`.Q.}.|.^.q.&.% O - ; h I _.XXXX",
"XXXXXXXXB.@ ; L L G w.P.l.I.e.K M.).{.^.b.; c n.S.H.!..XXXXX",
"XXXXXXXXB.@ @ g =   u t.a.a.| $ G W.}.}.A.g N !. XXXXXXXXXXX",
"XXXXXXXXB.@ = D f O u r.a.a...$ z v.Z.Z.z.= N (.XXXXXXXXXXXX",
"XXXXXXXXD.v l H l = i <.r.r.^ o d J x.J D h I _.XXXXXXXXXXXX",
"XXXXXXXX`.F.c.j j l V r t t 2 X d H H f G M.~..XXXXXXXXXXXXX",
"XXXXXXXXXXXXV.@ f x.l O   X     d H x + G _.XXXXXXXXXXXXXXXX"
};
