/* XPM */
static char *result[] = {
/* columns rows colors chars-per-pixel */
"30 30 168 2 ",
"   c #141B1B",
".  c #1A1F1E",
"X  c #23201F",
"o  c #1B2121",
"O  c #1F2E2E",
"+  c #2A2621",
"@  c #262C2C",
"#  c #282F2F",
"$  c #312723",
"%  c #332B23",
"&  c #3A2B26",
"*  c #3C2520",
"=  c #3E3225",
"-  c #3F3428",
";  c #3B3938",
":  c #462822",
">  c #512B23",
",  c #413426",
"<  c #483727",
"1  c #443029",
"2  c #4C362B",
"3  c #52362D",
"4  c #553D2C",
"5  c #59392F",
"6  c #5E3229",
"7  c #563C33",
"8  c #5E3B30",
"9  c #6B3126",
"0  c #6D362B",
"q  c #62382E",
"w  c #773529",
"e  c #613C31",
"r  c #723F35",
"t  c #5A422C",
"y  c #4A4539",
"u  c #634130",
"i  c #6D4135",
"p  c #6E4539",
"a  c #724335",
"s  c #7F4032",
"d  c #7B4738",
"f  c #7D5334",
"g  c #314C4D",
"h  c #3F6365",
"j  c #454A4A",
"k  c #5E5247",
"l  c #4E5B54",
"z  c #575C5C",
"x  c #5B5A58",
"c  c #6A4A43",
"v  c #7E4B41",
"b  c #6F5E4E",
"n  c #62514B",
"m  c #675D53",
"M  c #6C6359",
"N  c #70675E",
"B  c #736456",
"V  c #5B6060",
"C  c #506D69",
"Z  c #666766",
"A  c #746965",
"S  c #7C6F6C",
"D  c #6C7171",
"F  c #747878",
"G  c #7A7E7E",
"H  c #8F3A2B",
"J  c #923B2C",
"K  c #9C3E2D",
"L  c #8A3F30",
"P  c #854C3B",
"I  c #8C4F3D",
"U  c #964534",
"Y  c #8F5D38",
"T  c #865239",
"R  c #93513F",
"E  c #9B523F",
"W  c #AF422F",
"Q  c #AD4E39",
"!  c #B34F3A",
"~  c #B94E39",
"^  c #B64531",
"/  c #A5513D",
"(  c #AD503B",
")  c #A56A3E",
"_  c #AD6E3F",
"`  c #A4673E",
"'  c #C54934",
"]  c #CC4A34",
"[  c #D14B34",
"{  c #965340",
"}  c #995540",
"|  c #A45D43",
" . c #816147",
".. c #82654C",
"X. c #956949",
"o. c #9D6B46",
"O. c #836852",
"+. c #AF6444",
"@. c #B36845",
"#. c #BF6F47",
"$. c #B06544",
"%. c #A3754E",
"&. c #B47141",
"*. c #BA7848",
"=. c #826B67",
"-. c #887B62",
";. c #897F75",
":. c #C27844",
">. c #C77548",
",. c #C97C46",
"<. c #D47E4A",
"1. c #748071",
"2. c #89827D",
"3. c #8A8075",
"4. c #B79774",
"5. c #DE864C",
"6. c #C88A5E",
"7. c #D9935E",
"8. c #E1874D",
"9. c #E48A4D",
"0. c #EA8E4E",
"q. c #EF914F",
"w. c #C78E63",
"e. c #D6996D",
"r. c #E69D67",
"t. c #528284",
"y. c #548789",
"u. c #598685",
"i. c #7B9E9D",
"p. c #749FA1",
"a. c #8A8682",
"s. c #848888",
"d. c #838686",
"f. c #968F86",
"g. c #9D9A86",
"h. c #8E9191",
"j. c #909494",
"k. c #969999",
"l. c #9A9D9D",
"z. c #A9A39C",
"x. c #ABABA9",
"c. c #B5B5B3",
"v. c #B8BABA",
"b. c #D7AF8C",
"n. c #D1AF94",
"m. c #EBAF83",
"M. c #CCBDAA",
"N. c #D8C9BB",
"B. c #BDCFCF",
"V. c #BAD3D6",
"C. c #C1C0C0",
"Z. c #C7C8C8",
"A. c #CACCCC",
"S. c #DCD5CC",
"D. c #CED0D0",
"F. c #D6D7D7",
"G. c #D6D8D8",
"H. c #DADBDB",
"J. c #E5DFD5",
"K. c #DBE7EA",
"L. c #E2E3E3",
"P. c #EEEFEF",
"I. c #E1EBEB",
"U. c #E3F1F5",
"Y. c #EFF0F0",
"T. c #F4F4F4",
"R. c #F3F7FE",
"E. c white",
/* pixels */
"E.E.E.E.E.k.@ o o o . o . F L.x.; . . . o Z F.E.E.E.E.E.E.E.",
"E.E.E.A.k.A 7 3 3 2 3 & . j s.=.r 9 9 0 9 c 2.h.h.j.j.j.j.j.",
"E.E.E.k.@ 2 { { R { I 5 o . o 5 W ] ] ] ] L * @ o o o o X o ",
"E.A.k.=.9 L / ! Q ! ! U 0 9 9 J ' [ [ [ [ W w 9 9 9 9 > X   ",
"E.j.@ 0 ' ] ] ] ] ] [ ] ] ' ] ] [ [ [ [ [ [ ' ] ] ' ' J *   ",
"l.A 3 r ! ' [ [ [ [ [ [ [ [ [ [ [ [ [ [ [ [ [ [ [ ^ H  .S G ",
"@ 5 I R E ! ] [ [ [ [ [ [ [ [ [ [ [ [ [ [ [ [ [ [ K : x C.Y.",
"  3 R { { / ! ' ] [ [ [ [ [ [ [ [ [ [ [ ] ] ~ ~ ~ U q n 2.l.",
"  3 { { { { E ! ] [ [ [ [ [ [ [ [ [ [ [ [ ~ / E } R I p 1 # ",
"  2 { { { { { / ~ ~ ~ ~ ~ ~ ~ ~ ~ ~ ~ ~ ~ Q E { } { { a $   ",
"  3 { { { { { E E E E E E E } E E E E E } E { { } { { a $   ",
"  & q d R { { { { { { { } { { { { { { { } } { { { { { p $   ",
"  . X 5 R { { { { { { { { { { { { { { { { { { { { } { a $   ",
"  + 1 r R { { { { { { { { { { { { { { { { { { { { P i c Z D ",
"  2 P I { { { { { { { { { { { { { { { { { { { { { a & x c.L.",
"  u $.| { { { { { { { { { { { { { { { { { { { | $.T & z A.R.",
"  f 5._ / E E R { { { { { { { { { { { { { { { +.<.` = z A.R.",
"  f 0.<.@.` } { { { { { { { { { { { { { { | +.>.9._ , z A.E.",
"  f 0.9.8.>.} { { { } R { { { R { { { { R +.<.9.q._ , z A.E.",
"V O.+.6.0.<.@.@.@.@.@.@.@.@.@.@.@.@.@.@.@.>.5.5._ X.N h.H.E.",
"H.2., Y 9.9.9.8.5.5.8.5.8.5.5.8.5.5.5.5.5.9.q.&.t M c.L.T.E.",
"E.h.o t ) 6.m.m.m.m.m.m.m.m.m.m.m.m.m.m.m.e.*.f % V D.E.E.E.",
"E.h.. X & ;.S.J.J.J.J.J.J.J.J.J.J.J.J.J.J.z.k % . V D.E.E.E.",
"v.3.t 4 4 f.K.U.U.U.U.U.U.U.U.U.U.U.U.U.U.c.b 4 4 B z.A.P.E.",
"j  .*.:.:.n.I.U.U.U.U.U.U.U.U.U.U.U.U.U.I.N.4.:.:.` k G F.E.",
"  f 0.q.q.b.B.V.V.V.V.V.V.V.V.V.V.V.V.V.B.N.r.q.q._ = z A.E.",
". T 0.q.q.4.i.p.p.p.p.p.p.p.p.p.p.p.p.p.p.g.7.q.q._ , z A.E.",
"l .._ _ &.-.u.y.y.y.y.y.y.y.y.y.y.y.y.y.y.1.%.&._ X.M s.F.E.",
"Z.3.2 < < l t.y.y.y.y.y.y.y.y.y.y.y.y.y.y.C y < < B x.F.T.E.",
"E.j..     g t.y.y.y.y.y.y.y.y.y.y.y.y.y.y.h O     V A.E.E.E."
};
