/* XPM */
static char *fdbd73a0313d4dac8f6cb37da2e01f26DjxjYDDpYHtHDkl5[] = {
/* columns rows colors chars-per-pixel */
"30 30 68 1 ",
"  c white",
". c #FEFEFE",
"X c #E9EDF0",
"o c #B4C1C9",
"O c #FBFCFC",
"+ c #F1F4F5",
"@ c #B3C0C8",
"# c #E5E9EC",
"$ c #BAC7CE",
"% c #EFF2F3",
"& c #BAC6CD",
"* c #F6F9FE",
"= c #FEFEFF",
"- c #CDDCFC",
"; c #F5F8FE",
": c #FBFCFF",
"> c #CBDBFC",
", c #CFDEFC",
"< c #FDFEFF",
"1 c #F4F8FE",
"2 c #DBE6FD",
"3 c #F0F5FE",
"4 c #FEFFFF",
"5 c #D9E5FD",
"6 c #CDDCFB",
"7 c #E4E9ED",
"8 c #EBF1FE",
"9 c #D5E2FD",
"0 c #F3F6FE",
"q c #FBFDFF",
"w c #FCFCFE",
"e c #BACBE4",
"r c #AEBFD2",
"t c #C9D9F9",
"y c #C8D6EB",
"u c #D8E4FD",
"i c #F4F7FE",
"p c #FCFCFD",
"a c #BECAD2",
"s c #BBCBE1",
"d c #CAD3D9",
"f c #E9F0FE",
"g c #FAFBFB",
"h c #C1CCD3",
"j c #CBD4D9",
"k c #E8EFFE",
"l c #F8FAFF",
"z c #F3F7FE",
"x c #E5EDFD",
"c c #F2F6FE",
"v c #E5EDFE",
"b c #C7D1D7",
"n c #F5F7F8",
"m c #DBE1E5",
"M c #BECAD0",
"N c #F7F8F9",
"B c #EBEFF1",
"V c #BDC9D0",
"C c #DFE4E8",
"Z c #FCFDFD",
"A c #EDF0F2",
"S c #E3ECFD",
"D c #DFE9FD",
"F c #FCFDFF",
"G c #D2E0FC",
"H c #FDFDFF",
"J c #FAFCFF",
"K c #CEDDFC",
/* pixels */
"                     .        ",
"                   .XoO       ",
"                   +@#$       ",
"                    %&        ",
"                              ",
"                *             ",
"               =-;            ",
"     *:        =>, <1         ",
"     23        456789         ",
"     230q       werty         ",
"     23ui       paesd         ",
"     f*ui        ghj          ",
"       kl                     ",
"                              ",
"z                             ",
"xz                           c",
"v1                           i",
";                             ",
"                              ",
"                              ",
"         bn                   ",
"        bmMN                  ",
"        BVCZ                  ",
"         Ap            zS     ",
"                     *D32     ",
"                     iu32     ",
"                     iu<:     ",
"                     =F       ",
"            GH                ",
"           GJK=               "
};
