/* XPM */
static char *db5448516f01453cf840f28005485a594UZFVRas0g0PScub[] = {
/* columns rows colors chars-per-pixel */
"23 23 13 1 ",
"  c white",
". c #C7D1D7",
"X c #E9EDEF",
"o c #CBDBFC",
"O c #E8EFFE",
"+ c #F3F7FE",
"@ c #847E87",
"# c #696A6A",
"$ c #DCE7FD",
"% c #EEF3FE",
"& c #9BADB7",
"* c #B2B2B2",
"= c #A2A7B1",
/* pixels */
"                .X     ",
"                 X     ",
"                       ",
"                       ",
"          ooo    oo    ",
"    O+ ooo@@@oooo#@@   ",
"    $% @@@@@@@@@@##@@  ",
"    $%&@@@@@@@@@@###@@ ",
"       @@@@@@@@@## ##@ ",
"        o@@@@@@@##o ## ",
"O       o@@#@@@@##oo   ",
"%%   oo   o#@@@@##@@## ",
"O  oo@@  o o@@@###@@#  ",
" o@@@# oo#o #o@### @o  ",
" @@@@#@@@#@o #@## o @o ",
" @@@@#@@@#@@##@@@@#####",
" @@@@#@@@@@@#@ @@@@####",
" #@@# #@@@@@@#  @@@@###",
" ###  ##@@@@@  oo@@###*",
" *##@oo##@@@@oo@@#@##**",
"  ***@###@@@o@@#####** ",
"    *****#######*****  ",
"       **==*******     "
};
