/* XPM */
static char *b0b06d197e6c4a5dd7ed284b098a9e0cNzTdlYo7MIppJddA[] = {
/* columns rows colors chars-per-pixel */
"30 30 43 1 ",
"  c white",
". c #FEFEFE",
"X c #E9EDF0",
"o c #B4C1C9",
"O c #FBFCFC",
"+ c #F1F4F5",
"@ c #B3C0C8",
"# c #E5E9EC",
"$ c #BAC7CE",
"% c #EFF2F3",
"& c #BAC6CD",
"* c #F6F9FE",
"= c #FBFCFF",
"- c #CBDBFC",
"; c #DBE6FD",
": c #F0F5FE",
"> c #847E87",
", c #696A6A",
"< c #F3F6FE",
"1 c #FBFDFF",
"2 c #D8E4FD",
"3 c #F4F7FE",
"4 c #9BADB7",
"5 c #E9F0FE",
"6 c #F3F7FE",
"7 c #E5EDFD",
"8 c #F2F6FE",
"9 c #E5EDFE",
"0 c #F4F8FE",
"q c #F5F8FE",
"w c #B2B2B2",
"e c #AAACB1",
"r c #9EA5B1",
"t c #ACAEB1",
"y c #9CA3B1",
"u c #A8ABB1",
"i c #FDFEFF",
"p c #FEFEFF",
"a c #FCFDFF",
"s c #D2E0FC",
"d c #FDFDFF",
"f c #FAFCFF",
"g c #CEDDFC",
/* pixels */
"                     .        ",
"                   .XoO       ",
"                   +@#$       ",
"                    %&        ",
"                              ",
"                              ",
"                              ",
"     *=      ---    --        ",
"     ;:   --->>>----,>>       ",
"     ;:<1 >>>>>>>>>>,,>>      ",
"     ;:234>>>>>>>>>>,,,>>     ",
"     5*2  >>>>>>>>>,, ,,>     ",
"           ->>>>>>>,,- ,,     ",
"           ->>,>>>>,,--       ",
"6       --   -,>>>>,,>>,,     ",
"76    -->>  - ->>>,,,>>,     8",
"90  ->>>, --,- ,->,,, >-     3",
"q   >>>>,>>>,>- ,>,, - >-     ",
"    >>>>,>>>,>>,,>>>>,,,,,    ",
"    >>>>,>>>>>>,> >>>>,,,,    ",
"    ,>>, ,>>>>>>,  >>>>,,,    ",
"    ,,,  ,,>>>>>  -->>,,,w    ",
"    w,,>--,,>>>>-->>,>,,ww    ",
"     www>,,,>>>->>,,,,,er     ",
"       wwwww,,,,,,,wwtyu;     ",
"          wwwwwwwwwww32:;     ",
"                     32i=     ",
"                     pa       ",
"            sd                ",
"           sfgp               "
};
