/* XPM */
static char *cb7134cf226a446585f4c62943f378d6CMMrdswnDuvOJG5e[] = {
/* columns rows colors chars-per-pixel */
"30 30 201 2 ",
"   c #040504",
".  c #0B0B0B",
"X  c #0D130B",
"o  c #0F1D0C",
"O  c #141414",
"+  c #1D1C1C",
"@  c #151818",
"#  c #211F1D",
"$  c #172E14",
"%  c #2B341F",
"&  c #232323",
"*  c #2A2626",
"=  c #2B2C2C",
"-  c #352C2C",
";  c #333333",
":  c #3B3B3B",
">  c #393833",
",  c #343224",
"<  c #403F3F",
"1  c #5B272B",
"2  c #7F3B3D",
"3  c #782938",
"4  c #2F561D",
"5  c #26441F",
"6  c #324635",
"7  c #4B582B",
"8  c #6C523F",
"9  c #363F4D",
"0  c #2C3D46",
"q  c #402F49",
"w  c #4B3D5A",
"e  c #5A3C49",
"r  c #6E3A41",
"t  c #7E3F45",
"y  c #316F4A",
"u  c #38714D",
"i  c #454243",
"p  c #484E47",
"a  c #4C4158",
"s  c #594C55",
"d  c #595757",
"f  c #5B5A5A",
"g  c #535353",
"h  c #4F554E",
"j  c #784849",
"k  c #774D54",
"l  c #655959",
"z  c #795959",
"x  c #535966",
"c  c #6B5A67",
"v  c #775161",
"b  c #785970",
"n  c #55686E",
"m  c #646363",
"M  c #6C6B6B",
"N  c #6D6569",
"B  c #736C6D",
"V  c #63706D",
"C  c #6F6E71",
"Z  c #7E6174",
"A  c #61767E",
"S  c #787578",
"D  c #9D3430",
"F  c #8B3932",
"G  c #A9322C",
"H  c #B5342E",
"J  c #AD3331",
"K  c #AA383F",
"L  c #B43533",
"P  c #B43C3C",
"I  c #B83637",
"U  c #C1303E",
"Y  c #A3413D",
"T  c #992B45",
"R  c #952B41",
"E  c #863247",
"W  c #A83D42",
"Q  c #A43948",
"!  c #BF3042",
"~  c #BB3D43",
"^  c #B73D48",
"/  c #C02F42",
"(  c #C13142",
")  c #C03E46",
"_  c #C13D4E",
"`  c #C33E50",
"'  c #85474B",
"]  c #984449",
"[  c #8A4B58",
"{  c #9A4954",
"}  c #8B5559",
"|  c #955254",
" . c #99595C",
".. c #92554C",
"X. c #A4444B",
"o. c #AF4A4C",
"O. c #AA4749",
"+. c #BD4144",
"@. c #B7444B",
"#. c #A75847",
"$. c #A44B53",
"%. c #A94A54",
"&. c #B24C53",
"*. c #B84654",
"=. c #A45558",
"-. c #B35151",
";. c #96605D",
":. c #86685B",
">. c #A46853",
",. c #845767",
"<. c #A75D68",
"1. c #8F636E",
"2. c #906D74",
"3. c #88717D",
"4. c #9A7270",
"5. c #A9676A",
"6. c #B36061",
"7. c #B36C6C",
"8. c #B46668",
"9. c #A46872",
"0. c #A77175",
"q. c #B97475",
"w. c #AC7166",
"e. c #C94241",
"r. c #C34457",
"t. c #C75352",
"y. c #C36968",
"u. c #D26564",
"i. c #CD716F",
"p. c #C57979",
"a. c #B58A66",
"s. c #3C7E97",
"d. c #7C7582",
"f. c #817F8D",
"g. c #937785",
"h. c #AD7B83",
"j. c #C47F82",
"k. c #3B8297",
"l. c #3291B1",
"z. c #3C8CA8",
"x. c #588296",
"c. c #7C8086",
"v. c #65949B",
"b. c #4696AA",
"n. c #519DBB",
"m. c #4096B6",
"M. c #6E99A6",
"N. c #48A3C5",
"B. c #50A5C5",
"V. c #66ABC9",
"C. c #6CAAC8",
"Z. c #938F8F",
"A. c #988E9B",
"S. c #99989B",
"D. c #848484",
"F. c #A98787",
"G. c #B2838D",
"H. c #A99894",
"J. c #B18D96",
"K. c #948DA0",
"L. c #8095A3",
"P. c #949AA8",
"I. c #A89FA9",
"U. c #91A0AD",
"Y. c #97A1B6",
"T. c #A6A5A8",
"R. c #B1AEAE",
"E. c #A3A9B7",
"W. c #BDBCBC",
"Q. c #C0ACAB",
"!. c #C3BBB8",
"~. c #8DB0CB",
"^. c #91B1CA",
"/. c #A6B8CD",
"(. c #B6B7C7",
"). c #B7C4CB",
"_. c #C9C9C9",
"`. c #C8C5C3",
"'. c #D0CFCE",
"]. c #CDCFD4",
"[. c #D5D2D2",
"{. c #DCDBDB",
"}. c #D8D7D7",
"|. c #CEDDFC",
" X c #CCD3E2",
".X c #DAE5FD",
"XX c #D6E3FC",
"oX c #ECECEB",
"OX c #E8E7E8",
"+X c #FBEEED",
"@X c #F9E8E6",
"#X c #FBF0EF",
"$X c #E6EDF9",
"%X c #F1EFF6",
"&X c #EEF1F2",
"*X c #F4F3F3",
"=X c #FCF3F2",
"-X c #FCF8F7",
";X c #F2F6FE",
":X c #F6F9FE",
">X c #FFFFFF",
/* pixels */
">X>X>X>X>X>X>X>X>X>X>X>X>X>X>X>X>X>X>X>X>X>X>X>X>X>X>X>X>X>X",
">X>X>X>X>X>X>X>X>X>X>X>X>X>X>X>X>X>X>X>XoX).>X>X>X>X>X>X>X>X",
">X>X>X>X>X>X>X>X>X>X>X>X>X>X>X>X>X>X>X*X).OX).>X>X>X>X>X>X>X",
">X>X>X>X>X>X>X>X>X>X>X>X>X>X*X*X>X>X>X>X&X).>X>X>X>X>X>X>X>X",
">X>X>X>X>X>X>X>X>X>X-XM D.M i < m T._.[.[.[.[.[.{.*X>X>X>X>X",
">X>X>X>X>X>X>X>X>X-Xf . : M S.T.C i = # + + + + & : `.>X>X>X",
">X>X>X>X>X>X>X>XOXm &  .p.j.p.p.q.q.7.7.6.6.&.-.7.N * }.>X>X",
">X>X>X>X>X:X>X`.: > [ *.r.r.r.` _ ^ &.X.{  .0.0.t.i.i l -X>X",
">X>X>X>X>X.XS.& l S U.b.b.b.M.M.A $.$.j ' { c | 8.e.F.+ {.>X",
">X>X>X>X*Xx @ + B E.^.N.N.B.~.V.m.,.z z.s.$.l.k. .y.y.* R.>X",
">X>X>XoX&   . s v./.V.C.^./.(.C.b.[ d.n.n.$.u y j 5.u.f B >X",
">X>X-Xi . i O V v.L.P.P.T.E.(.V.x.X.f.S.J.{ 7 4 8 =.u.S d >X",
">X>XW.  . - k | X.%.%.$.] ] ,.d.} X.n :.z { | } | %.i.S d >X",
">X*X+   l 9.r.! ! ! ! U U ( K Q Q Q $.%.@.] W I W o.p.B d >X",
";XS.  * 5.r.( ( ( ! / ( Q { ^ I I I ~ ) ) @.@.+.P J h.l m >X",
"$X=   H.A.I.g.1.9.,.[ ,.K.<.*.) ~ P J H H H G H L J F.- Z.*X",
" X. . Q.A.I.N 2.0.S c.S.Y.H.a.P ' Y L P ~ +.P &.c ' ' + !.%X",
"].@ & H.>.>.5.A.A.g. .w.4.#.P } i j L H H H G } Z j } @ `.-X",
"OX& O 4.Q W %.G.G.h.o.#.#.#.O.3.g.k G J J D F k v ;.s i *X>X",
">Xd . ..t 3 E !.`.J.T T T R 1 b b k 2 r e a > p p 6 = '.>X>X",
">XW.O 6 5 % , x n x w a w q # s c 9 0 6 6 $ $ X   O W.>X>X>X",
">X>Xf             X o o o X O O X X .     . @ ; M _.>X>X-X>X",
">X>X-XT.d + . . . @ = ; > > > > > ; g S.W.{.oX>X>X>X>X>X>X>X",
"-X-X>X>X>X>X>X>X>X&X>X>X-X-X*XoXoXOX=X=X=X=X>X;X$X>X>X>X>X>X",
">X=X=X#X@X+X+X=X=X=X=X+X-X>X>X>X>X>X>X>X>X:X.X;X.X>X>X>X>X>X",
">X>X>X>X>X>X>X>X>X>X>X>X>X>X>X>X>X>X>X>X>X;X.X;X.X>X>X>X>X>X",
">X>X>X>X>X>X>X>X>X>X>X>X>X>X>X>X>X>X>X>X>X;X.X>X>X>X>X>X>X>X",
">X>X>X>X>X>X>X>X>X>X>X>X>X>X>X>X>X>X>X>X>X>X>X>X>X>X>X>X>X>X",
">X>X>X>X>X>X>X>X>X>X>X>XXX>X>X>X>X>X>X>X>X>X>X>X>X>X>X>X>X>X",
">X>X>X>X>X>X>X>X>X>X>XXX>X|.>X>X>X>X>X>X>X>X>X>X>X>X>X>X>X>X"
};
