/* XPM */
static char *dcd747dc98664835ecb7cc8804a60b4ahwChTNIun89LKtL9[] = {
/* columns rows colors chars-per-pixel */
"31 60 9 1 ",
"  c black",
". c None",
"X c white",
"o c #CBDBFC",
"O c #3E734E",
"+ c #4D9262",
"@ c #7AB055",
"# c #45283C",
"$ c #663931",
/* pixels */
"               XXX             ",
"             XXXXXo            ",
"            XXXXXooX           ",
"           XXXXoooXXX          ",
"          O+oXXXXXXXXX         ",
"         O+@oXXXXXXXXXX        ",
"         OXXXo@+XXXXXXX        ",
"        OXXoo@+@XoXXXXXo       ",
"       O++o+@@Xoo+oXXXXoO      ",
"       X+++@+@+@+++XXooOO      ",
"       XX@+XXXX++XXXoOOOO      ",
"      OXoo@OoooXXoooOOOOOO     ",
"      ooo@@@OOOOOOO+++OOOO     ",
"      O+@@@++++++++++++OXO     ",
"     O+XX+@+@++XXXXXXXXXoOO    ",
"    O+XXXXX++XXXXXXXoOoo+OOO   ",
"    O+oooXXoX+++oXXoO+O+OOO    ",
"    O++++oo++++++ooO+O+O+OO    ",
"   XXX++O+O+++++++++++++OOO    ",
"   XXX+++O+O+O+++++++++O+OOO   ",
"   XXX@+++O+O+O+O+++++++OOXOO  ",
"   oXX+@+++OOOOO+O+++XX+XXXXO  ",
"   oXXX+@+++OOOOO+++XXXXXoooO  ",
"   OoXXX+@+++XXXXX++XXXXo++OOO ",
"   OOXXXX+@XXooooXXXXXooO+OOOO ",
"  OOoooXXXXX++OOOoooooOO+O+OOOO",
" OXXoOOooooo++++OOOOOOO+O+O+OOO",
" OXXXOOOOOO+++++++OOO++O+OXOOOO",
" OoXXX@+++++++++++++++++XXXoOOO",
" OOoXXX@++++++++++++++XXXXoOOOO",
" OO+ooXXX++XXXXXo++++oooooOO+OX",
" OOO++oo++oXXXXo+++++++O+OOOOXo",
"OOOOO++++++oooo++++++OOOOOOOXoO",
"OOOOOOOOO++++++++++++++++XXXoOO",
"OXO++++++XX+++++++++++++XX+++OO",
"OXXX+OXooXXXXXXOOOO+@@XXXo+OOOO",
"OXXXX+OOOoooXOOOOO+XXXoo+OOOOOO",
"OoXXX+OOOOOOOO+ooooooooooOO++OO",
"OoXXoo+OOOOOOOOOOOOOOOOOO+++++O",
"O+oXXXX+OOOOOOOOOO++++XXXXXo++O",
"O++ooXXXX++++XX+++++XXXXoo@+++O",
" O++@oo++++XoooXX+Xooooo++++OOO",
"  OOO++oo+++++++++++++++++OOOOO",
"   OOOO+++++++OO++++++++OOOOOO ",
"    OOOOO++++OOOOOOOOOOOOOOOO  ",
"      OOOOOOOOOOOOOOOOOOOOOO   ",
"        OOOOOO######OO         ",
"         OOO########           ",
"           $$$$#$#$#           ",
"           $$$$#$#$#..         ",
"       ....$$$$$$#$##.....     ",
"     .....$#$$$$$#$##.......   ",
"    .....$##$$$$$#$##$.......  ",
"   .........$$#$$#####$....... ",
"   ........$$$#$####$......... ",
"    .......$#########$.......  ",
"     ......$........##......   ",
"       ...................     ",
"           ...........         ",
"                               "
};
