/* XPM */
static char *eeac5cd63200456ae9fc5bf98b76dcaaLWMA2ZJKdoZMoUwW[] = {
/* columns rows colors chars-per-pixel */
"19 19 8 1 ",
"  c None",
". c #4A3B1F",
"X c #E5AB3D",
"o c #FDC760",
"O c #2379EA",
"+ c white",
"@ c #D8B78F",
"# c #FFD7A8",
/* pixels */
"                   ",
"  ............     ",
" ..XXXXooooooo.    ",
".O.XXXXXooXXXo.    ",
".O.X+++Xo.ooo..    ",
"...X+.+Xoooooo.    ",
" .O.+++Xoooooo.    ",
" .O.XXXXoooooo.    ",
" ...XXXXXo.....    ",
"   ..XXoooo.       ",
"  . .X@####.       ",
"  ...X@####.       ",
"  .ooX@####.       ",
"  ..XXXo@@o.       ",
"   ..Xooooo.       ",
"    .Xo..Xo.       ",
"    .X. .X.        ",
"    ..  ..         ",
"                   "
};
